<svg width="58" height="58" viewBox="0 0 58 58" fill="none" xmlns="http://www.w3.org/2000/svg">
<path d="M36.7054 29.0405L36.5286 29.2173L36.7054 29.394L55.617 48.3095L55.6171 48.3096C57.7625 50.4532 57.7625 53.9313 55.6171 56.0749L55.617 56.0749C54.5442 57.1478 53.1387 57.6841 51.7343 57.6841C50.33 57.6841 48.9245 57.1478 47.8517 56.0749L28.9381 37.1614L28.7613 36.9846L28.5845 37.1614L9.625 56.1209C8.55222 57.1936 7.14483 57.73 5.74039 57.73C4.33592 57.73 2.92862 57.1936 1.85785 56.121L1.8577 56.1209C-0.285899 53.9773 -0.285899 50.4991 1.8577 48.3555L20.8191 29.3941L20.9959 29.2173L20.8191 29.0405L1.90371 10.127C-0.240031 7.98142 -0.239923 4.50316 1.90363 2.35961C4.04918 0.214059 7.52732 0.214168 9.67086 2.35954L9.67095 2.35962L28.5864 21.2732L28.7632 21.45L28.94 21.2732L47.8554 2.35777C47.8554 2.35775 47.8555 2.35772 47.8555 2.3577C50.001 0.214102 53.4754 0.214102 55.6209 2.3577C57.7664 4.50325 57.7663 7.98139 55.6209 10.1249L55.6209 10.125L36.7054 29.0405Z" fill="#31373D" stroke="black" stroke-width="0.5"/>
</svg>
